<svg width="48" height="45" viewBox="0 0 48 45" fill="none" xmlns="http://www.w3.org/2000/svg">
<path d="M23.8113 21.4114C28.1155 21.4114 31.4632 17.916 31.4632 13.6262C31.4632 9.33648 27.9561 6 23.6519 6C19.3477 6 16 9.49536 16 13.6262C16 17.916 19.5071 21.4114 23.8113 21.4114ZM23.6519 9.1776C23.8113 9.1776 23.8113 9.1776 23.6519 9.1776C26.2025 9.1776 28.2749 11.243 28.2749 13.7851C28.2749 16.3272 26.2025 18.2338 23.6519 18.2338C21.1013 18.2338 19.1883 16.1683 19.1883 13.7851C19.1883 11.243 21.2607 9.1776 23.6519 9.1776Z" fill="#0D5C63"/>
<path d="M47.4335 19.8487C44.4046 17.1477 40.4193 15.7178 36.2745 15.8767H34.9992C34.6804 17.1477 34.2021 18.2599 33.5645 19.2132C34.5209 19.0543 35.318 19.0543 36.2745 19.0543C39.3034 18.8954 42.3323 19.8487 44.7235 21.5964V33.0357H47.9118V20.3253L47.4335 19.8487Z" fill="#0D5C63"/>
<path d="M32.6088 5.70826C33.4058 3.8017 35.6376 2.84842 37.71 3.64282C39.623 4.43722 40.5795 6.66154 39.7824 8.72697C39.1448 10.1569 37.71 11.1102 36.2753 11.1102C35.9565 11.1102 35.4782 11.1102 35.1594 10.9513C35.3188 11.7457 35.3188 12.5401 35.3188 13.1756V14.1289C35.6376 14.1289 35.9565 14.2878 36.2753 14.2878C40.2607 14.2878 43.449 11.1102 43.449 7.29706C43.449 3.32506 40.2607 0.147461 36.4347 0.147461C33.8841 0.147461 31.6523 1.4185 30.377 3.64282C31.174 4.11946 31.9711 4.75498 32.6088 5.70826Z" fill="#0D5C63"/>
<path d="M14.4352 19.3724C13.7975 18.4191 13.3193 17.3069 13.0005 16.0359H11.7252C7.58037 15.877 3.59501 17.3069 0.566134 19.849L0.0878906 20.3257V33.0361H3.27618V21.5967C5.82681 19.849 8.69628 18.8957 11.7252 19.0546C12.6816 19.0546 13.6381 19.2135 14.4352 19.3724Z" fill="#0D5C63"/>
<path d="M11.7246 14.1295C12.0435 14.1295 12.3623 14.1295 12.6811 13.9706V13.0174C12.6811 12.223 12.6811 11.4286 12.8405 10.793C12.5217 10.9519 12.0435 10.9519 11.7246 10.9519C9.65225 10.9519 7.89869 9.20424 7.89869 7.1388C7.89869 5.07336 9.65225 3.32568 11.7246 3.32568C13.3188 3.32568 14.7535 4.27896 15.3912 5.70888C16.0288 4.91448 16.9853 4.12008 17.7824 3.48456C15.71 0.148085 11.4058 -0.964074 8.0581 1.10136C4.7104 3.1668 3.59449 7.45656 5.66688 10.793C6.9422 12.8585 9.174 14.1295 11.7246 14.1295Z" fill="#0D5C63"/>
<path d="M36.8395 22.5473L36.5185 21.8553C33.3086 16.7805 28.8148 13.7817 24 14.0124C19.1852 13.7817 14.5309 16.7805 11.321 21.8553L11 22.5473V40.0785C11 42.1546 12.1235 44 13.7284 44H34.2716C35.716 44 37 42.1546 37 40.0785V22.5473H36.8395ZM33.6296 39.3865H14.2099V24.1621C16.7778 20.4713 20.3086 18.6259 24 18.6259C27.5309 18.3952 31.0617 20.4713 33.6296 24.1621V39.3865Z" fill="#0D5C63"/>
</svg>
